<mxfile host="app.diagrams.net" modified="2023-06-22T03:53:06.104Z" agent="Mozilla/5.0 (Macintosh; Intel Mac OS X 10_15_7) AppleWebKit/537.36 (KHTML, like Gecko) Chrome/114.0.0.0 Safari/537.36" etag="iXmN-hsENyozDDPAk_5o" version="21.3.7" type="device">
  <diagram id="DEMv4WJ_T1V0zAcS2LcA" name="characteristic feature">
    <mxGraphModel dx="1306" dy="776" grid="1" gridSize="10" guides="1" tooltips="1" connect="1" arrows="1" fold="1" page="1" pageScale="1" pageWidth="827" pageHeight="1169" math="1" shadow="0">
      <root>
        <mxCell id="0" />
        <mxCell id="1" parent="0" />
        <mxCell id="6cwKb4Ox6WpdyhgPQVM5-7" value="" style="ellipse;whiteSpace=wrap;html=1;aspect=fixed;fillColor=#4D4D4D;strokeColor=#000000;fontColor=#ffffff;strokeWidth=2;" parent="1" vertex="1">
          <mxGeometry x="520" y="180" width="70" height="70" as="geometry" />
        </mxCell>
        <mxCell id="mWab_-8N9wXFLHfZuCKQ-10" style="edgeStyle=orthogonalEdgeStyle;rounded=0;orthogonalLoop=1;jettySize=auto;html=1;strokeWidth=2;strokeColor=#4D4D4D;" parent="1" edge="1">
          <mxGeometry relative="1" as="geometry">
            <mxPoint x="240" y="200" as="sourcePoint" />
            <mxPoint x="370" y="200" as="targetPoint" />
          </mxGeometry>
        </mxCell>
        <mxCell id="cnYQU-IL9enpyJjohNxl-21" value="" style="ellipse;whiteSpace=wrap;html=1;aspect=fixed;fillColor=#4D4D4D;strokeColor=#000000;fontColor=#ffffff;strokeWidth=2;" parent="1" vertex="1">
          <mxGeometry x="136" y="170" width="70" height="70" as="geometry" />
        </mxCell>
        <mxCell id="6cwKb4Ox6WpdyhgPQVM5-1" value="" style="edgeStyle=orthogonalEdgeStyle;rounded=0;orthogonalLoop=1;jettySize=auto;html=1;entryX=0.5;entryY=0;entryDx=0;entryDy=0;" parent="1" source="cnYQU-IL9enpyJjohNxl-22" target="t5-vEzU89gaLV2OtlJ7F-1" edge="1">
          <mxGeometry relative="1" as="geometry" />
        </mxCell>
        <mxCell id="cnYQU-IL9enpyJjohNxl-22" value="" style="ellipse;whiteSpace=wrap;html=1;aspect=fixed;fillColor=#999999;strokeColor=#000000;strokeWidth=2;" parent="1" vertex="1">
          <mxGeometry x="146" y="180" width="50" height="50" as="geometry" />
        </mxCell>
        <mxCell id="cnYQU-IL9enpyJjohNxl-23" style="edgeStyle=orthogonalEdgeStyle;rounded=0;orthogonalLoop=1;jettySize=auto;html=1;entryX=0.5;entryY=1;entryDx=0;entryDy=0;strokeWidth=2;strokeColor=#4D4D4D;" parent="1" source="cnYQU-IL9enpyJjohNxl-24" target="cnYQU-IL9enpyJjohNxl-21" edge="1">
          <mxGeometry relative="1" as="geometry">
            <Array as="points">
              <mxPoint x="170" y="265" />
              <mxPoint x="170" y="250" />
            </Array>
          </mxGeometry>
        </mxCell>
        <mxCell id="cnYQU-IL9enpyJjohNxl-24" value="" style="ellipse;whiteSpace=wrap;html=1;aspect=fixed;fillColor=#d5e8d4;strokeColor=#82B366;strokeWidth=2;" parent="1" vertex="1">
          <mxGeometry x="60" y="240" width="50" height="50" as="geometry" />
        </mxCell>
        <mxCell id="xVmOhVBuHYHWlE-PeX73-16" style="edgeStyle=orthogonalEdgeStyle;rounded=0;orthogonalLoop=1;jettySize=auto;html=1;entryX=0;entryY=0;entryDx=0;entryDy=0;strokeWidth=2;strokeColor=#4D4D4D;" parent="1" source="cnYQU-IL9enpyJjohNxl-26" target="cnYQU-IL9enpyJjohNxl-21" edge="1">
          <mxGeometry relative="1" as="geometry" />
        </mxCell>
        <mxCell id="cnYQU-IL9enpyJjohNxl-26" value="" style="ellipse;whiteSpace=wrap;html=1;aspect=fixed;fillColor=#dae8fc;strokeColor=#6C8EBF;strokeWidth=2;" parent="1" vertex="1">
          <mxGeometry x="50" y="120" width="50" height="50" as="geometry" />
        </mxCell>
        <mxCell id="cnYQU-IL9enpyJjohNxl-42" style="edgeStyle=orthogonalEdgeStyle;rounded=0;orthogonalLoop=1;jettySize=auto;html=1;entryX=0.5;entryY=0;entryDx=0;entryDy=0;strokeWidth=2;strokeColor=#4D4D4D;" parent="1" source="cnYQU-IL9enpyJjohNxl-28" target="cnYQU-IL9enpyJjohNxl-21" edge="1">
          <mxGeometry relative="1" as="geometry" />
        </mxCell>
        <mxCell id="cnYQU-IL9enpyJjohNxl-28" value="" style="ellipse;whiteSpace=wrap;html=1;aspect=fixed;fillColor=#dae8fc;strokeColor=#6C8EBF;strokeWidth=2;" parent="1" vertex="1">
          <mxGeometry x="220" y="120" width="50" height="50" as="geometry" />
        </mxCell>
        <mxCell id="cnYQU-IL9enpyJjohNxl-29" style="edgeStyle=orthogonalEdgeStyle;rounded=0;orthogonalLoop=1;jettySize=auto;html=1;entryX=0;entryY=0.5;entryDx=0;entryDy=0;strokeWidth=2;strokeColor=#4D4D4D;" parent="1" source="cnYQU-IL9enpyJjohNxl-30" target="cnYQU-IL9enpyJjohNxl-21" edge="1">
          <mxGeometry relative="1" as="geometry" />
        </mxCell>
        <mxCell id="cnYQU-IL9enpyJjohNxl-30" value="" style="ellipse;whiteSpace=wrap;html=1;aspect=fixed;fillColor=#dae8fc;strokeColor=#6C8EBF;strokeWidth=2;" parent="1" vertex="1">
          <mxGeometry x="20" y="180" width="50" height="50" as="geometry" />
        </mxCell>
        <mxCell id="cnYQU-IL9enpyJjohNxl-33" value="" style="ellipse;whiteSpace=wrap;html=1;aspect=fixed;fillColor=#f8cecc;strokeColor=#B85450;strokeWidth=2;" parent="1" vertex="1">
          <mxGeometry x="620" y="250" width="50" height="50" as="geometry" />
        </mxCell>
        <mxCell id="cnYQU-IL9enpyJjohNxl-34" value="" style="endArrow=none;html=1;rounded=0;strokeWidth=3;dashed=1;strokeColor=#4D4D4D;" parent="1" edge="1">
          <mxGeometry width="50" height="50" relative="1" as="geometry">
            <mxPoint x="510" y="300" as="sourcePoint" />
            <mxPoint x="510" y="120" as="targetPoint" />
          </mxGeometry>
        </mxCell>
        <mxCell id="cnYQU-IL9enpyJjohNxl-35" value="&lt;font style=&quot;font-size: 14px;&quot;&gt;TARGET&lt;/font&gt;" style="text;html=1;strokeColor=none;fillColor=none;align=center;verticalAlign=middle;whiteSpace=wrap;rounded=0;fontSize=22;" parent="1" vertex="1">
          <mxGeometry x="660" y="140" width="93.5" height="20" as="geometry" />
        </mxCell>
        <mxCell id="jXC8IIWnlSqL4LivibP2-10" style="edgeStyle=orthogonalEdgeStyle;rounded=0;orthogonalLoop=1;jettySize=auto;html=1;entryX=0.5;entryY=0;entryDx=0;entryDy=0;strokeWidth=2;" parent="1" source="mWab_-8N9wXFLHfZuCKQ-5" target="jXC8IIWnlSqL4LivibP2-3" edge="1">
          <mxGeometry relative="1" as="geometry" />
        </mxCell>
        <mxCell id="mWab_-8N9wXFLHfZuCKQ-5" value="" style="rounded=0;whiteSpace=wrap;html=1;container=0;fillColor=#a20025;strokeColor=#4D4D4D;fontColor=#ffffff;strokeWidth=2;" parent="1" vertex="1">
          <mxGeometry x="420" y="200" width="30" height="20" as="geometry" />
        </mxCell>
        <mxCell id="mWab_-8N9wXFLHfZuCKQ-6" value="&lt;p style=&quot;line-height: 80%;&quot;&gt;&lt;font style=&quot;font-size: 14px;&quot;&gt;CHARACTERISITC&lt;br&gt;FEATURE&lt;/font&gt;&lt;/p&gt;" style="text;html=1;strokeColor=none;fillColor=none;align=center;verticalAlign=middle;whiteSpace=wrap;rounded=0;container=0;fontSize=22;" parent="1" vertex="1">
          <mxGeometry x="350" y="140" width="180" height="50" as="geometry" />
        </mxCell>
        <mxCell id="jXC8IIWnlSqL4LivibP2-9" style="edgeStyle=orthogonalEdgeStyle;rounded=0;orthogonalLoop=1;jettySize=auto;html=1;exitX=1;exitY=0.5;exitDx=0;exitDy=0;entryX=0;entryY=0.5;entryDx=0;entryDy=0;" parent="1" source="t5-vEzU89gaLV2OtlJ7F-1" target="jXC8IIWnlSqL4LivibP2-2" edge="1">
          <mxGeometry relative="1" as="geometry" />
        </mxCell>
        <mxCell id="t5-vEzU89gaLV2OtlJ7F-1" value="" style="rounded=0;whiteSpace=wrap;html=1;container=0;strokeWidth=2;strokeColor=#4D4D4D;" parent="1" vertex="1">
          <mxGeometry x="210" y="250" width="60" height="20" as="geometry" />
        </mxCell>
        <mxCell id="jXC8IIWnlSqL4LivibP2-2" value="" style="rounded=0;whiteSpace=wrap;html=1;container=0;strokeWidth=2;strokeColor=#4D4D4D;" parent="1" vertex="1">
          <mxGeometry x="310" y="250" width="50" height="20" as="geometry" />
        </mxCell>
        <mxCell id="jXC8IIWnlSqL4LivibP2-3" value="" style="rounded=0;whiteSpace=wrap;html=1;container=0;fillColor=#a20025;strokeColor=#4D4D4D;fontColor=#ffffff;strokeWidth=2;" parent="1" vertex="1">
          <mxGeometry x="360" y="250" width="30" height="20" as="geometry" />
        </mxCell>
        <mxCell id="jXC8IIWnlSqL4LivibP2-7" value="&lt;font style=&quot;font-size: 18px;&quot;&gt;$$x_{new}$$&lt;/font&gt;" style="text;html=1;strokeColor=none;fillColor=none;align=center;verticalAlign=middle;whiteSpace=wrap;rounded=0;fontSize=24;fontStyle=1" parent="1" vertex="1">
          <mxGeometry x="313.25" y="280" width="60" height="20" as="geometry" />
        </mxCell>
        <mxCell id="EvBdUIvnK0ht_aLXw8rh-1" value="&lt;font style=&quot;font-size: 18px;&quot;&gt;$$x$$&lt;/font&gt;" style="text;html=1;strokeColor=none;fillColor=none;align=center;verticalAlign=middle;whiteSpace=wrap;rounded=0;fontSize=24;fontStyle=1" parent="1" vertex="1">
          <mxGeometry x="210" y="280" width="60" height="20" as="geometry" />
        </mxCell>
        <mxCell id="4o5rM-EIG1aIoiUxuOQm-10" value="&lt;b style=&quot;&quot;&gt;&lt;font style=&quot;font-size: 18px;&quot;&gt;=&lt;/font&gt;&lt;/b&gt;" style="text;html=1;strokeColor=none;fillColor=none;align=center;verticalAlign=middle;whiteSpace=wrap;rounded=0;fontSize=22;" parent="1" vertex="1">
          <mxGeometry x="570" y="190" width="63.5" height="30" as="geometry" />
        </mxCell>
        <mxCell id="6cwKb4Ox6WpdyhgPQVM5-4" value="" style="ellipse;whiteSpace=wrap;html=1;aspect=fixed;fillColor=#dae8fc;strokeColor=#6C8EBF;strokeWidth=2;" parent="1" vertex="1">
          <mxGeometry x="620" y="130" width="50" height="50" as="geometry" />
        </mxCell>
        <mxCell id="6cwKb4Ox6WpdyhgPQVM5-5" value="" style="ellipse;whiteSpace=wrap;html=1;aspect=fixed;fillColor=#d5e8d4;strokeColor=#82B366;strokeWidth=2;" parent="1" vertex="1">
          <mxGeometry x="620" y="190" width="50" height="50" as="geometry" />
        </mxCell>
        <mxCell id="6cwKb4Ox6WpdyhgPQVM5-6" value="" style="ellipse;whiteSpace=wrap;html=1;aspect=fixed;fillColor=#999999;strokeColor=#000000;strokeWidth=2;" parent="1" vertex="1">
          <mxGeometry x="530" y="190" width="50" height="50" as="geometry" />
        </mxCell>
        <mxCell id="6cwKb4Ox6WpdyhgPQVM5-8" value="&lt;span style=&quot;font-size: 14px;&quot;&gt;SOURCE&lt;/span&gt;" style="text;html=1;strokeColor=none;fillColor=none;align=center;verticalAlign=middle;whiteSpace=wrap;rounded=0;fontSize=22;" parent="1" vertex="1">
          <mxGeometry x="660" y="200" width="93.5" height="20" as="geometry" />
        </mxCell>
        <mxCell id="6cwKb4Ox6WpdyhgPQVM5-9" value="&lt;span style=&quot;font-size: 14px;&quot;&gt;TEST&lt;/span&gt;" style="text;html=1;strokeColor=none;fillColor=none;align=center;verticalAlign=middle;whiteSpace=wrap;rounded=0;fontSize=22;" parent="1" vertex="1">
          <mxGeometry x="660" y="265" width="93.5" height="20" as="geometry" />
        </mxCell>
      </root>
    </mxGraphModel>
  </diagram>
</mxfile>
